<svg width="30" height="32" viewBox="0 0 30 32" fill="none" xmlns="http://www.w3.org/2000/svg">
    <path d="M17.4267 0.623778C17.4267 0.478314 17.3077 0.359375 17.162 0.359375H12.9288C12.7831 0.359375 12.6641 0.478314 12.6641 0.623778V5.12248H17.4272V0.623778H17.4267Z" fill="#2727E6"/>
    <path d="M29.8125 5.3701V9.33537C29.8125 9.4716 29.699 9.58299 29.5603 9.58299H28.659C27.8863 9.58299 27.2378 10.1532 27.1545 10.9065C27.1545 10.9065 26.132 19.9101 26.132 19.9149C25.8267 22.6136 24.4708 24.9929 22.4107 26.782C20.2796 28.6324 17.6437 29.6517 15.6408 31.646C15.5461 31.7406 15.4179 31.7955 15.2828 31.7955H14.8114C14.6763 31.7955 14.5481 31.7406 14.4534 31.646C12.4505 29.6513 9.81452 28.6324 7.68345 26.782C5.62341 24.9929 4.26787 22.6136 3.96255 19.9149C3.96255 19.9101 2.94008 10.9065 2.94008 10.9065C2.85682 10.1532 2.20782 9.58299 1.43556 9.58299H0.5335C0.394722 9.58299 0.28125 9.4716 0.28125 9.33537V5.3701C0.28125 5.23386 0.394722 5.12247 0.5335 5.12247H12.775V7.47935C12.775 7.95257 12.4999 8.38372 12.068 8.59208L7.25895 10.9093C6.40832 11.318 5.91362 12.2079 6.01688 13.1323L6.02464 13.1916C6.21771 14.7063 7.87284 15.5834 9.26838 14.9106L12.5934 13.3082C12.6766 13.2686 12.775 13.3279 12.775 13.4196V14.5099C12.775 14.9831 12.4999 15.4147 12.068 15.6227L8.1802 17.4935C6.79445 18.1627 6.52914 19.9842 7.66018 21.0152C7.72059 21.0697 7.77896 21.1218 7.83937 21.1739L7.84958 21.1839C8.50837 21.7465 9.45247 21.8506 10.2378 21.474L11.2603 20.9807L12.4113 20.4282C12.5778 20.3464 12.775 20.4654 12.775 20.6486V23.7091C12.775 24.3237 13.0301 24.8839 13.4415 25.285C13.8428 25.6789 14.3934 25.9269 15.004 25.9393C16.2763 25.9618 17.3188 24.8811 17.3188 23.6321V20.6482C17.3188 20.4646 17.5155 20.3456 17.6824 20.4278L18.8335 20.9803L19.856 21.4736C20.6409 21.8502 21.5854 21.7461 22.2442 21.1835L22.2544 21.1735C22.3148 21.1214 22.3732 21.0693 22.4336 21.0148C23.5646 19.9838 23.2993 18.1622 21.9136 17.4931L18.0257 15.6223C17.5939 15.4139 17.3188 14.9827 17.3188 14.5095V13.4192C17.3188 13.3275 17.4171 13.2682 17.5004 13.3078L20.8254 14.9102C22.2209 15.583 23.876 14.7059 24.0691 13.1912L24.0769 13.1319C24.1805 12.2075 23.6854 11.318 22.8348 10.9089L18.0257 8.59168C17.5939 8.38332 17.3188 7.95217 17.3188 7.47895V5.12207H29.5598C29.6986 5.12207 29.8121 5.23346 29.8121 5.3697L29.8125 5.3701Z" fill="#2727E6"/>
    </svg>
    