<svg width="464" height="572" viewBox="0 0 464 572" fill="none" xmlns="http://www.w3.org/2000/svg">
    <path fill-rule="evenodd" clip-rule="evenodd" d="M242.345 255.617C243.128 254.833 244.391 254.836 245.172 255.617L442.125 452.271C442.906 453.052 442.909 454.315 442.126 455.099L245.327 652.051C244.551 652.827 243.281 652.831 242.499 652.05L45.5478 455.397C44.7666 454.616 44.7697 453.345 45.5465 452.569L242.345 255.617Z" fill="#91D8EC"/>
    <path d="M71.1574 0.049169C72.027 -0.0537608 72.8576 0.419584 73.2212 1.22012L166.898 211.093C167.254 211.879 167.061 212.8 166.429 213.382L-3.95541 370C-4.58829 370.583 -5.54045 370.69 -6.29952 370.265L-205.243 257.181C-206.001 256.751 -206.391 255.882 -206.213 255.032L-158.821 28.5105C-158.645 27.6697 -157.95 27.0347 -157.101 26.9335L71.1574 0.049169Z" fill="#FFBAC4"/>
    </svg>
    