<svg width="379" height="372" viewBox="0 0 379 372" fill="none" xmlns="http://www.w3.org/2000/svg">
    <path d="M187.651 1.3536C188.491 0.209201 190.198 0.209201 191.038 1.3536L235.553 62.0276C236.056 62.7206 236.922 63.0355 237.747 62.8256L311.065 44.7986C312.446 44.4627 313.758 45.5652 313.662 46.9825L308.547 121.893C308.489 122.754 308.954 123.552 309.722 123.93L377.509 156.981C378.791 157.6 379.091 159.301 378.098 160.33L325.772 214.432C325.177 215.051 325.015 215.965 325.364 216.752L355.927 285.395C356.506 286.697 355.647 288.188 354.231 288.335L279.149 296.335C278.302 296.429 277.593 297.017 277.356 297.836L256.396 369.986C256 371.351 254.393 371.938 253.213 371.151L190.511 329.27C189.804 328.798 188.885 328.798 188.178 329.27L125.476 371.151C124.296 371.938 122.689 371.351 122.293 369.986L101.333 297.836C101.096 297.017 100.387 296.429 99.5398 296.335L24.458 288.335C23.0417 288.188 22.1829 286.697 22.7624 285.395L53.3252 216.752C53.6737 215.965 53.512 215.051 52.9167 214.432L0.590527 160.33C-0.401633 159.301 -0.102405 157.6 1.17953 156.981L68.9666 123.93C69.7351 123.552 70.2003 122.754 70.1415 121.893L65.0274 46.9825C64.9308 45.5652 66.2432 44.4627 67.6238 44.7986L140.942 62.8256C141.767 63.0355 142.633 62.7206 143.136 62.0276L187.651 1.3536Z" fill="#ADE4F7"/>
    </svg>
    