<svg width="189" height="185" viewBox="0 0 189 185" fill="none" xmlns="http://www.w3.org/2000/svg">
    <path d="M93.6548 0.427981C94.074 -0.14266 94.926 -0.14266 95.3452 0.427981L117.562 30.6825C117.813 31.028 118.245 31.185 118.657 31.0803L155.25 22.0914C155.939 21.9239 156.594 22.4736 156.545 23.1804L153.993 60.5338C153.964 60.9631 154.196 61.3609 154.579 61.5494L188.411 78.03C189.051 78.3389 189.2 79.187 188.705 79.7L162.59 106.677C162.293 106.986 162.212 107.442 162.386 107.834L177.639 142.062C177.929 142.711 177.5 143.455 176.793 143.528L139.321 147.517C138.898 147.564 138.544 147.858 138.426 148.266L127.965 184.243C127.767 184.923 126.965 185.216 126.376 184.824L95.0822 163.94C94.7295 163.705 94.2705 163.705 93.9178 163.94L62.6237 184.824C62.0347 185.216 61.233 184.923 61.0354 184.243L50.5744 148.266C50.4559 147.858 50.1022 147.564 49.6794 147.517L12.2068 143.528C11.4999 143.455 11.0713 142.711 11.3605 142.062L26.6141 107.834C26.788 107.442 26.7073 106.986 26.4102 106.677L0.294726 79.7C-0.200451 79.187 -0.0511093 78.3389 0.588691 78.03L34.4206 61.5494C34.8041 61.3609 35.0363 60.9631 35.0069 60.5338L32.4545 23.1804C32.4063 22.4736 33.0613 21.9239 33.7504 22.0914L70.3427 31.0803C70.7545 31.185 71.1868 31.028 71.4378 30.6825L93.6548 0.427981Z" fill="#FFE54D"/>
    </svg>
    