<svg width="25" height="25" viewBox="0 0 25 25" fill="none" xmlns="http://www.w3.org/2000/svg">
    <path d="M21.9683 5H3.96826C3.76935 5 3.57858 5.07902 3.43793 5.21967C3.29728 5.36032 3.21826 5.55109 3.21826 5.75V18.5C3.21826 18.8978 3.3763 19.2794 3.6576 19.5607C3.93891 19.842 4.32044 20 4.71826 20H21.2183C21.6161 20 21.9976 19.842 22.2789 19.5607C22.5602 19.2794 22.7183 18.8978 22.7183 18.5V5.75C22.7183 5.55109 22.6392 5.36032 22.4986 5.21967C22.3579 5.07902 22.1672 5 21.9683 5ZM10.2214 12.5L4.71826 17.5438V7.45625L10.2214 12.5ZM11.3276 13.5219L12.462 14.5531C12.6003 14.6796 12.7809 14.7498 12.9683 14.7498C13.1557 14.7498 13.3363 14.6796 13.4745 14.5531L14.6089 13.5219L20.037 18.5H5.89951L11.3276 13.5219ZM15.7151 12.5L21.2183 7.45625V17.5438L15.7151 12.5Z" fill="#2727E6"/>
    </svg>
    