<svg width="25" height="25" viewBox="0 0 25 25" fill="none" xmlns="http://www.w3.org/2000/svg">
    <path
        d="M22.6808 16.9155C22.5149 18.1815 21.895 19.3442 20.9362 20.1875C19.9774 21.0307 18.7451 21.4971 17.4683 21.4999C10.0245 21.4999 3.96826 15.4436 3.96826 7.99989C3.97108 6.72306 4.43746 5.49071 5.28069 4.53194C6.12392 3.57317 7.28663 2.95323 8.55264 2.78739C8.87537 2.7516 9.20111 2.81955 9.48262 2.98138C9.76413 3.1432 9.98677 3.39049 10.1183 3.68739L12.0026 8.08426C12.1004 8.31249 12.1396 8.56151 12.1167 8.80873C12.0937 9.05594 12.0094 9.29352 11.8714 9.49989L10.3151 11.8811C11.0198 13.3113 12.181 14.4658 13.6151 15.1624L15.9683 13.5968C16.1744 13.4578 16.4126 13.3737 16.6603 13.3524C16.908 13.331 17.157 13.3732 17.3839 13.4749L21.7808 15.3499C22.0777 15.4814 22.3249 15.704 22.4868 15.9855C22.6486 16.267 22.7165 16.5928 22.6808 16.9155ZM15.7245 4.97176C16.8661 5.28365 17.9067 5.88782 18.7435 6.72464C19.5803 7.56147 20.1845 8.60203 20.4964 9.74364C20.5378 9.90391 20.631 10.046 20.7616 10.1477C20.8922 10.2495 21.0527 10.3052 21.2183 10.3061C21.2849 10.306 21.3511 10.2965 21.4151 10.278C21.5105 10.2531 21.5999 10.2093 21.6781 10.1494C21.7563 10.0895 21.8218 10.0145 21.8707 9.92896C21.9196 9.84339 21.9509 9.74893 21.9628 9.65111C21.9748 9.55328 21.967 9.45406 21.9401 9.35926C21.5652 7.96115 20.8289 6.68631 19.8054 5.66276C18.7818 4.63921 17.507 3.90298 16.1089 3.52801C16.0111 3.49237 15.9069 3.47749 15.803 3.48432C15.6991 3.49115 15.5977 3.51953 15.5054 3.56767C15.4131 3.61581 15.3318 3.68264 15.2667 3.76392C15.2016 3.8452 15.1542 3.93913 15.1274 4.03975C15.1006 4.14037 15.0951 4.24546 15.1111 4.34833C15.1272 4.45121 15.1645 4.54962 15.2206 4.63729C15.2768 4.72496 15.3506 4.79998 15.4374 4.85756C15.5241 4.91515 15.6219 4.95404 15.7245 4.97176ZM14.9464 7.86864C15.581 8.04234 16.1593 8.37835 16.6246 8.84358C17.0898 9.3088 17.4258 9.88718 17.5995 10.5218C17.6394 10.6828 17.7323 10.8258 17.8632 10.9278C17.9941 11.0298 18.1554 11.0849 18.3214 11.0843C18.385 11.0849 18.4483 11.0754 18.5089 11.0561C18.6051 11.0322 18.6955 10.9892 18.7747 10.9297C18.854 10.8702 18.9205 10.7954 18.9704 10.7098C19.0202 10.6241 19.0523 10.5293 19.0648 10.431C19.0774 10.3326 19.07 10.2328 19.0433 10.1374C18.8065 9.2463 18.3384 8.43362 17.6865 7.78167C17.0345 7.12971 16.2218 6.66165 15.3308 6.42489C15.2329 6.38924 15.1287 6.37436 15.0249 6.38119C14.921 6.38802 14.8196 6.41641 14.7273 6.46455C14.635 6.51268 14.5537 6.57952 14.4886 6.66079C14.4235 6.74207 14.3761 6.83601 14.3493 6.93662C14.3225 7.03724 14.3169 7.14233 14.333 7.24521C14.3491 7.34809 14.3864 7.44649 14.4425 7.53417C14.4987 7.62184 14.5725 7.69685 14.6592 7.75444C14.746 7.81202 14.8438 7.85091 14.9464 7.86864Z"
        fill="#2727E6" />
</svg>
    