<svg width="25" height="25" viewBox="0 0 25 25" fill="none" xmlns="http://www.w3.org/2000/svg">
    <path
        d="M19.728 21.5H15.0968C15.8771 20.8031 16.613 20.0579 17.2999 19.2687C19.8687 16.3156 21.228 13.1938 21.228 10.25C21.228 8.06196 20.3588 5.96354 18.8117 4.41637C17.2645 2.86919 15.1661 2 12.978 2C10.79 2 8.69157 2.86919 7.1444 4.41637C5.59722 5.96354 4.72803 8.06196 4.72803 10.25C4.72803 13.1938 6.0874 16.3156 8.66553 19.2687C9.35 20.0602 10.086 20.8055 10.8687 21.5H6.22803C6.02911 21.5 5.83835 21.579 5.6977 21.7197C5.55705 21.8603 5.47803 22.0511 5.47803 22.25C5.47803 22.4489 5.55705 22.6397 5.6977 22.7803C5.83835 22.921 6.02911 23 6.22803 23H19.728C19.9269 23 20.1177 22.921 20.2584 22.7803C20.399 22.6397 20.478 22.4489 20.478 22.25C20.478 22.0511 20.399 21.8603 20.2584 21.7197C20.1177 21.579 19.9269 21.5 19.728 21.5ZM12.978 7.25C13.5714 7.25 14.1514 7.42595 14.6447 7.75559C15.1381 8.08524 15.5226 8.55377 15.7497 9.10195C15.9767 9.65013 16.0361 10.2533 15.9204 10.8353C15.8046 11.4172 15.5189 11.9518 15.0993 12.3713C14.6798 12.7909 14.1452 13.0766 13.5633 13.1924C12.9814 13.3081 12.3782 13.2487 11.83 13.0216C11.2818 12.7946 10.8133 12.4101 10.4836 11.9167C10.154 11.4234 9.97803 10.8433 9.97803 10.25C9.97803 9.45435 10.2941 8.69129 10.8567 8.12868C11.4193 7.56607 12.1824 7.25 12.978 7.25Z"
        fill="#2727E6" />
</svg>
    