<svg width="54" height="54" viewBox="0 0 54 54" fill="none" xmlns="http://www.w3.org/2000/svg">
    <circle cx="27.2418" cy="27.0816" r="26.6339" fill="#E4EFFF"/>
    <path d="M39.1817 28.0001C39.181 28.2916 39.1069 28.5781 38.9662 28.8323C38.8255 29.0864 38.623 29.2997 38.3781 29.4518L23.3495 38.7659C23.0992 38.927 22.8101 39.0151 22.5138 39.0207C22.2175 39.0263 21.9253 38.9492 21.6693 38.7977C21.4094 38.653 21.1928 38.4398 21.0422 38.1806C20.8916 37.9214 20.8126 37.6258 20.8135 37.3248V18.6754C20.8126 18.3745 20.8916 18.0788 21.0422 17.8196C21.1928 17.5604 21.4094 17.3473 21.6693 17.2025C21.9253 17.051 22.2175 16.9739 22.5138 16.9795C22.8101 16.9851 23.0992 17.0732 23.3495 17.2343L38.3781 26.5484C38.623 26.7005 38.8255 26.9138 38.9662 27.1679C39.1069 27.4221 39.181 27.7086 39.1817 28.0001Z" fill="#2727E6"/>
    </svg>
    