<svg width="42" height="41" viewBox="0 0 42 41" fill="none" xmlns="http://www.w3.org/2000/svg">
    <circle cx="21" cy="20.5" r="20.5" fill="#2727E6" />
    <path
        d="M30.1897 21.2069C30.1892 21.4313 30.1321 21.6518 30.0238 21.8474C29.9155 22.043 29.7597 22.2072 29.5712 22.3242L18.0038 29.4933C17.8111 29.6173 17.5886 29.6851 17.3605 29.6894C17.1324 29.6937 16.9076 29.6344 16.7105 29.5178C16.5105 29.4063 16.3437 29.2422 16.2278 29.0427C16.1119 28.8432 16.0511 28.6157 16.0518 28.3841V14.0297C16.0511 13.798 16.1119 13.5705 16.2278 13.371C16.3437 13.1715 16.5105 13.0074 16.7105 12.896C16.9076 12.7794 17.1324 12.72 17.3605 12.7243C17.5886 12.7287 17.8111 12.7965 18.0038 12.9205L29.5712 20.0895C29.7597 20.2066 29.9155 20.3708 30.0238 20.5664C30.1321 20.762 30.1892 20.9825 30.1897 21.2069Z"
        fill="white" />
</svg>
    