<svg width="20" height="20" viewBox="0 0 20 20" fill="none" xmlns="http://www.w3.org/2000/svg">
<g id="icon/Generate B">
<g id="Vector">
<path d="M5.36635 3.19507C5.59107 2.26831 6.90913 2.26831 7.13386 3.19507L7.7522 5.74511C7.83244 6.07599 8.09078 6.33433 8.42166 6.41456L10.9717 7.03291C11.8985 7.25764 11.8985 8.5757 10.9717 8.80042L8.42166 9.41877C8.09078 9.499 7.83244 9.75735 7.7522 10.0882L7.13386 12.6383C6.90913 13.565 5.59107 13.565 5.36635 12.6383L4.748 10.0882C4.66777 9.75735 4.40942 9.499 4.07854 9.41877L1.5285 8.80042C0.601746 8.5757 0.601745 7.25764 1.5285 7.03291L4.07854 6.41456C4.40942 6.33433 4.66776 6.07599 4.748 5.74511L5.36635 3.19507Z" fill="white"/>
<path d="M12.7896 12.0944C12.9279 11.5241 13.739 11.5241 13.8773 12.0944L14.2578 13.6637C14.3072 13.8673 14.4662 14.0263 14.6698 14.0756L16.239 14.4562C16.8093 14.5944 16.8093 15.4056 16.239 15.5439L14.6698 15.9244C14.4662 15.9737 14.3072 16.1327 14.2578 16.3363L13.8773 17.9056C13.739 18.4759 12.9279 18.4759 12.7896 17.9056L12.4091 16.3363C12.3597 16.1327 12.2007 15.9737 11.9971 15.9244L10.4278 15.5439C9.85752 15.4056 9.85752 14.5944 10.4278 14.4562L11.9971 14.0756C12.2007 14.0263 12.3597 13.8673 12.4091 13.6637L12.7896 12.0944Z" fill="white"/>
<path d="M15.4765 3.0932C15.5673 2.71893 16.0996 2.71893 16.1903 3.0932L16.4401 4.12302C16.4725 4.25665 16.5768 4.36098 16.7104 4.39338L17.7402 4.6431C18.1145 4.73385 18.1145 5.26615 17.7402 5.3569L16.7104 5.60662C16.5768 5.63902 16.4725 5.74335 16.4401 5.87698L16.1903 6.9068C16.0996 7.28107 15.5673 7.28107 15.4765 6.9068L15.2268 5.87698C15.1944 5.74335 15.0901 5.63902 14.9565 5.60662L13.9266 5.3569C13.5524 5.26615 13.5524 4.73385 13.9266 4.6431L14.9565 4.39338C15.0901 4.36098 15.1944 4.25665 15.2268 4.12302L15.4765 3.0932Z" fill="white"/>
<path fill-rule="evenodd" clip-rule="evenodd" d="M15.8334 3.27591L15.6296 4.11643C15.5482 4.4524 15.2858 4.71472 14.9499 4.79619L14.1093 5L14.9499 5.20381C15.2858 5.28528 15.5482 5.5476 15.6296 5.88357L15.8334 6.72409L16.0372 5.88357C16.1187 5.5476 16.381 5.28528 16.717 5.20381L17.5575 5L16.717 4.79619C16.381 4.71472 16.1187 4.4524 16.0372 4.11643L15.8334 3.27591ZM16.2413 2.8208C16.1376 2.39307 15.5293 2.39307 15.4255 2.8208L15.1402 3.99774C15.1031 4.15046 14.9839 4.26969 14.8312 4.30672L13.6542 4.59211C13.2265 4.69583 13.2265 5.30417 13.6542 5.40789L14.8312 5.69328C14.9839 5.73031 15.1031 5.84954 15.1402 6.00226L15.4255 7.1792C15.5293 7.60693 16.1376 7.60693 16.2413 7.1792L16.5267 6.00226C16.5637 5.84954 16.683 5.73031 16.8357 5.69328L18.0126 5.40789C18.4404 5.30417 18.4404 4.69583 18.0126 4.59211L16.8357 4.30672C16.683 4.26969 16.5637 4.15046 16.5267 3.99774L16.2413 2.8208Z" fill="white"/>
<path d="M1.66677 15.8333C1.20653 15.8333 0.833435 15.4602 0.833435 15C0.833435 14.5398 1.20653 14.1667 1.66677 14.1667C2.12701 14.1667 2.5001 14.5398 2.5001 15C2.5001 15.4602 2.12701 15.8333 1.66677 15.8333Z" fill="white"/>
<path d="M18.3334 11.6667C17.8732 11.6667 17.5001 11.2936 17.5001 10.8333C17.5001 10.3731 17.8732 10 18.3334 10C18.7937 10 19.1668 10.3731 19.1668 10.8333C19.1668 11.2936 18.7937 11.6667 18.3334 11.6667Z" fill="white"/>
</g>
</g>
</svg>
